<mxfile host="Electron" modified="2024-02-19T16:30:40.386Z" agent="Mozilla/5.0 (Macintosh; Intel Mac OS X 10_15_7) AppleWebKit/537.36 (KHTML, like Gecko) draw.io/23.1.5 Chrome/120.0.6099.109 Electron/28.1.0 Safari/537.36" etag="clZ-ItVWyFmuG4B7sy0t" version="23.1.5" type="device">
  <diagram name="Page-1" id="fI80HuzD31ggSRjICT8T">
    <mxGraphModel dx="768" dy="589" grid="1" gridSize="10" guides="1" tooltips="1" connect="0" arrows="0" fold="1" page="1" pageScale="1" pageWidth="1100" pageHeight="850" math="0" shadow="0">
      <root>
        <mxCell id="0" />
        <mxCell id="1" parent="0" />
        <mxCell id="CB7PObpffi6PR3y4coE4-9" value="" style="endArrow=classic;html=1;rounded=0;strokeWidth=3;exitX=0.5;exitY=1;exitDx=0;exitDy=0;entryX=0.5;entryY=0;entryDx=0;entryDy=0;" parent="1" source="CB7PObpffi6PR3y4coE4-6" target="CB7PObpffi6PR3y4coE4-1" edge="1">
          <mxGeometry width="50" height="50" relative="1" as="geometry">
            <mxPoint x="560" y="460" as="sourcePoint" />
            <mxPoint x="560" y="260" as="targetPoint" />
          </mxGeometry>
        </mxCell>
        <mxCell id="CB7PObpffi6PR3y4coE4-10" value="&lt;font style=&quot;font-size: 18px;&quot;&gt;~C&lt;/font&gt;" style="text;strokeColor=none;align=center;fillColor=none;html=1;verticalAlign=middle;whiteSpace=wrap;rounded=0;" parent="1" vertex="1">
          <mxGeometry x="500" y="200" width="60" height="30" as="geometry" />
        </mxCell>
        <mxCell id="CB7PObpffi6PR3y4coE4-18" value="" style="rounded=1;whiteSpace=wrap;html=1;" parent="1" vertex="1">
          <mxGeometry x="180" y="380" width="590" height="60" as="geometry" />
        </mxCell>
        <mxCell id="CB7PObpffi6PR3y4coE4-20" value="" style="rounded=1;whiteSpace=wrap;html=1;" parent="1" vertex="1">
          <mxGeometry x="560" y="390" width="200" height="40" as="geometry" />
        </mxCell>
        <mxCell id="CB7PObpffi6PR3y4coE4-29" value="&lt;font style=&quot;font-size: 18px;&quot;&gt;ATP&lt;/font&gt;&amp;nbsp;(via" style="text;strokeColor=none;align=right;fillColor=none;html=1;verticalAlign=middle;whiteSpace=wrap;rounded=0;" parent="1" vertex="1">
          <mxGeometry x="369" y="235" width="100" height="30" as="geometry" />
        </mxCell>
        <mxCell id="CB7PObpffi6PR3y4coE4-31" value="" style="endArrow=classic;html=1;rounded=0;strokeWidth=3;entryX=0.167;entryY=-0.083;entryDx=0;entryDy=0;entryPerimeter=0;exitX=0.833;exitY=-0.083;exitDx=0;exitDy=0;exitPerimeter=0;" parent="1" edge="1">
          <mxGeometry width="50" height="50" relative="1" as="geometry">
            <mxPoint x="470.96000000000004" y="260.5100000000001" as="sourcePoint" />
            <mxPoint x="391.03999999999996" y="260.5100000000001" as="targetPoint" />
          </mxGeometry>
        </mxCell>
        <mxCell id="CB7PObpffi6PR3y4coE4-32" value="" style="endArrow=classic;html=1;rounded=0;strokeWidth=3;exitX=0.757;exitY=1.013;exitDx=0;exitDy=0;exitPerimeter=0;" parent="1" source="CB7PObpffi6PR3y4coE4-25" edge="1">
          <mxGeometry width="50" height="50" relative="1" as="geometry">
            <mxPoint x="340" y="170" as="sourcePoint" />
            <mxPoint x="339" y="390" as="targetPoint" />
          </mxGeometry>
        </mxCell>
        <mxCell id="CB7PObpffi6PR3y4coE4-33" value="&lt;font style=&quot;font-size: 18px;&quot;&gt;Represent&lt;/font&gt;" style="text;strokeColor=none;align=center;fillColor=none;html=1;verticalAlign=middle;whiteSpace=wrap;rounded=0;" parent="1" vertex="1">
          <mxGeometry x="249" y="320" width="60" height="30" as="geometry" />
        </mxCell>
        <mxCell id="CB7PObpffi6PR3y4coE4-42" value="&lt;font style=&quot;font-size: 24px;&quot;&gt;Herbrand&lt;/font&gt;" style="text;strokeColor=none;align=center;fillColor=none;html=1;verticalAlign=middle;whiteSpace=wrap;rounded=0;" parent="1" vertex="1">
          <mxGeometry x="635" y="395" width="60" height="30" as="geometry" />
        </mxCell>
        <mxCell id="CB7PObpffi6PR3y4coE4-46" value="" style="endArrow=classic;html=1;rounded=0;strokeWidth=3;entryX=0.81;entryY=-0.025;entryDx=0;entryDy=0;entryPerimeter=0;" parent="1" edge="1">
          <mxGeometry width="50" height="50" relative="1" as="geometry">
            <mxPoint x="730" y="320" as="sourcePoint" />
            <mxPoint x="730" y="389" as="targetPoint" />
          </mxGeometry>
        </mxCell>
        <mxCell id="CB7PObpffi6PR3y4coE4-47" value="&lt;font style=&quot;font-size: 18px;&quot;&gt;MPR&lt;sup&gt;*&lt;/sup&gt;&lt;/font&gt;" style="text;strokeColor=none;align=center;fillColor=none;html=1;verticalAlign=middle;whiteSpace=wrap;rounded=0;" parent="1" vertex="1">
          <mxGeometry x="621" y="230" width="70" height="30" as="geometry" />
        </mxCell>
        <mxCell id="CB7PObpffi6PR3y4coE4-70" value="&lt;font style=&quot;font-size: 24px;&quot;&gt;Models&lt;br&gt;&lt;/font&gt;" style="text;strokeColor=none;align=center;fillColor=none;html=1;verticalAlign=middle;whiteSpace=wrap;rounded=0;" parent="1" vertex="1">
          <mxGeometry x="469" y="395" width="60" height="30" as="geometry" />
        </mxCell>
        <mxCell id="CB7PObpffi6PR3y4coE4-72" value="" style="endArrow=classic;html=1;rounded=0;strokeWidth=3;" parent="1" edge="1">
          <mxGeometry width="50" height="50" relative="1" as="geometry">
            <mxPoint x="590" y="320" as="sourcePoint" />
            <mxPoint x="590" y="390" as="targetPoint" />
          </mxGeometry>
        </mxCell>
        <mxCell id="CB7PObpffi6PR3y4coE4-73" value="&lt;font style=&quot;font-size: 18px;&quot;&gt;Induce&lt;br&gt;&lt;/font&gt;" style="text;strokeColor=none;align=center;fillColor=none;html=1;verticalAlign=middle;whiteSpace=wrap;rounded=0;" parent="1" vertex="1">
          <mxGeometry x="596" y="320" width="60" height="30" as="geometry" />
        </mxCell>
        <mxCell id="CB7PObpffi6PR3y4coE4-75" value="" style="endArrow=classic;html=1;rounded=0;strokeWidth=3;" parent="1" edge="1">
          <mxGeometry width="50" height="50" relative="1" as="geometry">
            <mxPoint x="501" y="320" as="sourcePoint" />
            <mxPoint x="502" y="380" as="targetPoint" />
          </mxGeometry>
        </mxCell>
        <mxCell id="CB7PObpffi6PR3y4coE4-76" value="&lt;font style=&quot;font-size: 18px;&quot;&gt;Has&lt;br&gt;&lt;div style=&quot;&quot;&gt;&lt;span style=&quot;background-color: initial;&quot;&gt;models&lt;/span&gt;&lt;/div&gt;&lt;/font&gt;" style="text;strokeColor=none;align=right;fillColor=none;html=1;verticalAlign=middle;whiteSpace=wrap;rounded=0;" parent="1" vertex="1">
          <mxGeometry x="439" y="327" width="60" height="30" as="geometry" />
        </mxCell>
        <mxCell id="CB7PObpffi6PR3y4coE4-84" value="" style="endArrow=classic;html=1;rounded=0;strokeWidth=3;exitX=0;exitY=0.5;exitDx=0;exitDy=0;" parent="1" edge="1">
          <mxGeometry width="50" height="50" relative="1" as="geometry">
            <mxPoint x="724" y="300" as="sourcePoint" />
            <mxPoint x="620" y="300" as="targetPoint" />
          </mxGeometry>
        </mxCell>
        <mxCell id="CB7PObpffi6PR3y4coE4-86" value="" style="endArrow=classic;html=1;rounded=0;strokeWidth=3;entryX=0;entryY=0.25;entryDx=0;entryDy=0;" parent="1" edge="1">
          <mxGeometry width="50" height="50" relative="1" as="geometry">
            <mxPoint x="391" y="301" as="sourcePoint" />
            <mxPoint x="471" y="301" as="targetPoint" />
          </mxGeometry>
        </mxCell>
        <mxCell id="CB7PObpffi6PR3y4coE4-87" value="&lt;font style=&quot;&quot;&gt;&lt;b style=&quot;&quot;&gt;&lt;font style=&quot;font-size: 24px;&quot;&gt;⊨&lt;/font&gt;&lt;/b&gt;&lt;/font&gt;" style="text;strokeColor=none;align=center;fillColor=none;html=1;verticalAlign=middle;whiteSpace=wrap;rounded=0;" parent="1" vertex="1">
          <mxGeometry x="385" y="279" width="44" height="20" as="geometry" />
        </mxCell>
        <mxCell id="CB7PObpffi6PR3y4coE4-88" value="&lt;font style=&quot;&quot;&gt;&lt;b style=&quot;&quot;&gt;&lt;font style=&quot;font-size: 24px;&quot;&gt;⊨&lt;/font&gt;&lt;/b&gt;&lt;/font&gt;" style="text;strokeColor=none;align=center;fillColor=none;html=1;verticalAlign=middle;whiteSpace=wrap;rounded=0;" parent="1" vertex="1">
          <mxGeometry x="660" y="277" width="44" height="20" as="geometry" />
        </mxCell>
        <mxCell id="CB7PObpffi6PR3y4coE4-89" value="" style="endArrow=classic;html=1;rounded=0;strokeWidth=3;" parent="1" edge="1">
          <mxGeometry width="50" height="50" relative="1" as="geometry">
            <mxPoint x="367" y="320" as="sourcePoint" />
            <mxPoint x="367" y="380" as="targetPoint" />
          </mxGeometry>
        </mxCell>
        <mxCell id="K1FIQQKk6-DNr-Ojra8Q-1" value="&lt;font style=&quot;font-size: 18px;&quot;&gt;Has&amp;nbsp;&lt;b&gt;⊆&lt;/b&gt;&lt;br&gt;&lt;div style=&quot;&quot;&gt;&lt;span style=&quot;background-color: initial;&quot;&gt;models&lt;/span&gt;&lt;/div&gt;&lt;/font&gt;" style="text;strokeColor=none;align=left;fillColor=none;html=1;verticalAlign=middle;whiteSpace=wrap;rounded=0;" parent="1" vertex="1">
          <mxGeometry x="370" y="327" width="60" height="30" as="geometry" />
        </mxCell>
        <mxCell id="rJ3Lz98On3bpGiuCmN-c-1" style="edgeStyle=orthogonalEdgeStyle;rounded=0;orthogonalLoop=1;jettySize=auto;html=1;exitX=0.5;exitY=1;exitDx=0;exitDy=0;" parent="1" source="CB7PObpffi6PR3y4coE4-18" target="CB7PObpffi6PR3y4coE4-18" edge="1">
          <mxGeometry relative="1" as="geometry" />
        </mxCell>
        <mxCell id="rJ3Lz98On3bpGiuCmN-c-8" style="edgeStyle=orthogonalEdgeStyle;rounded=0;orthogonalLoop=1;jettySize=auto;html=1;exitX=0.5;exitY=1;exitDx=0;exitDy=0;" parent="1" source="CB7PObpffi6PR3y4coE4-18" target="CB7PObpffi6PR3y4coE4-18" edge="1">
          <mxGeometry relative="1" as="geometry" />
        </mxCell>
        <mxCell id="rJ3Lz98On3bpGiuCmN-c-9" value="&lt;font style=&quot;font-size: 18px;&quot;&gt;Induce&lt;br&gt;&lt;/font&gt;" style="text;strokeColor=none;align=center;fillColor=none;html=1;verticalAlign=middle;whiteSpace=wrap;rounded=0;" parent="1" vertex="1">
          <mxGeometry x="733" y="320" width="60" height="30" as="geometry" />
        </mxCell>
        <mxCell id="CB7PObpffi6PR3y4coE4-11" value="" style="group" parent="1" vertex="1" connectable="0">
          <mxGeometry x="470" y="240" width="150" height="80" as="geometry" />
        </mxCell>
        <mxCell id="CB7PObpffi6PR3y4coE4-1" value="" style="rounded=1;whiteSpace=wrap;html=1;" parent="CB7PObpffi6PR3y4coE4-11" vertex="1">
          <mxGeometry width="150" height="80" as="geometry" />
        </mxCell>
        <mxCell id="CB7PObpffi6PR3y4coE4-2" value="&lt;font style=&quot;font-size: 24px;&quot;&gt;&lt;font style=&quot;font-size: 24px;&quot;&gt;Satisfiable&lt;br&gt;formulae&amp;nbsp;&lt;/font&gt;&lt;font style=&quot;border-color: var(--border-color); font-size: 24px;&quot;&gt;&lt;font style=&quot;font-size: 24px;&quot;&gt;in&lt;/font&gt;&amp;nbsp;&lt;/font&gt;&lt;span style=&quot;border-color: var(--border-color); color: rgb(32, 33, 34); font-family: sans-serif; text-align: start; background-color: rgb(255, 255, 255);&quot;&gt;&lt;font style=&quot;border-color: var(--border-color); font-size: 24px;&quot;&gt;Σ&lt;/font&gt;&lt;/span&gt;&lt;/font&gt;" style="text;strokeColor=none;align=center;fillColor=none;html=1;verticalAlign=middle;whiteSpace=wrap;rounded=0;" parent="CB7PObpffi6PR3y4coE4-11" vertex="1">
          <mxGeometry x="42.857142857142854" y="25" width="64.28571428571428" height="30" as="geometry" />
        </mxCell>
        <mxCell id="FWbX-QxOHT2yN5r2L-8L-2" value="" style="group" parent="1" vertex="1" connectable="0">
          <mxGeometry x="470" y="160" width="150" height="40" as="geometry" />
        </mxCell>
        <mxCell id="CB7PObpffi6PR3y4coE4-6" value="" style="rounded=1;whiteSpace=wrap;html=1;" parent="FWbX-QxOHT2yN5r2L-8L-2" vertex="1">
          <mxGeometry width="150" height="40" as="geometry" />
        </mxCell>
        <mxCell id="CB7PObpffi6PR3y4coE4-7" value="&lt;font style=&quot;&quot;&gt;&lt;span style=&quot;font-size: 24px;&quot;&gt;Ax&amp;nbsp;&lt;/span&gt;&lt;b style=&quot;&quot;&gt;&lt;font style=&quot;font-size: 24px;&quot;&gt;⊨&lt;/font&gt;&lt;/b&gt; &lt;span style=&quot;font-size: 24px;&quot;&gt;C in&amp;nbsp;&lt;/span&gt;&lt;/font&gt;&lt;span style=&quot;color: rgb(32, 33, 34); font-family: sans-serif; text-align: start; background-color: rgb(255, 255, 255);&quot;&gt;&lt;font style=&quot;font-size: 24px;&quot;&gt;Σ&lt;/font&gt;&lt;/span&gt;" style="text;strokeColor=none;align=center;fillColor=none;html=1;verticalAlign=middle;whiteSpace=wrap;rounded=0;" parent="FWbX-QxOHT2yN5r2L-8L-2" vertex="1">
          <mxGeometry x="3" y="5" width="144" height="30" as="geometry" />
        </mxCell>
        <mxCell id="K1FIQQKk6-DNr-Ojra8Q-4" value="" style="rounded=1;whiteSpace=wrap;html=1;container=0;" parent="1" vertex="1">
          <mxGeometry x="696" y="240" width="130" height="80" as="geometry" />
        </mxCell>
        <mxCell id="K1FIQQKk6-DNr-Ojra8Q-5" value="&lt;font style=&quot;&quot;&gt;&lt;font style=&quot;font-size: 24px;&quot;&gt;Formulae&lt;br&gt;&lt;/font&gt;&lt;font style=&quot;font-size: 24px; border-color: var(--border-color);&quot;&gt;&lt;font style=&quot;font-size: 24px;&quot;&gt;in&lt;/font&gt;&amp;nbsp;&lt;/font&gt;&lt;span style=&quot;border-color: var(--border-color); color: rgb(32, 33, 34); font-family: sans-serif; text-align: start; background-color: rgb(255, 255, 255);&quot;&gt;&lt;font style=&quot;border-color: var(--border-color);&quot;&gt;&lt;span style=&quot;font-size: 24px;&quot;&gt;Σ&lt;/span&gt;&lt;sup style=&quot;&quot;&gt;&lt;font style=&quot;font-size: 24px;&quot;&gt;+&lt;/font&gt;&lt;/sup&gt;&lt;/font&gt;&lt;/span&gt;&lt;/font&gt;" style="text;strokeColor=none;align=center;fillColor=none;html=1;verticalAlign=middle;whiteSpace=wrap;rounded=0;" parent="1" vertex="1">
          <mxGeometry x="733" y="265" width="60" height="30" as="geometry" />
        </mxCell>
        <mxCell id="6dX01AlnoVZEZjXqfjMn-2" value="" style="endArrow=classic;html=1;rounded=0;strokeWidth=3;entryX=0.009;entryY=0.267;entryDx=0;entryDy=0;entryPerimeter=0;" parent="1" target="K1FIQQKk6-DNr-Ojra8Q-4" edge="1">
          <mxGeometry width="50" height="50" relative="1" as="geometry">
            <mxPoint x="620" y="261" as="sourcePoint" />
            <mxPoint x="696" y="260" as="targetPoint" />
          </mxGeometry>
        </mxCell>
        <mxCell id="6dX01AlnoVZEZjXqfjMn-1" value="&lt;span style=&quot;color: rgb(0, 0, 0); font-family: Helvetica; font-size: 12px; font-style: normal; font-variant-ligatures: normal; font-variant-caps: normal; font-weight: 400; letter-spacing: normal; orphans: 2; text-align: right; text-indent: 0px; text-transform: none; widows: 2; word-spacing: 0px; -webkit-text-stroke-width: 0px; background-color: rgb(251, 251, 251); text-decoration-thickness: initial; text-decoration-style: initial; text-decoration-color: initial; float: none; display: inline !important;&quot;&gt;(CNF?)&lt;/span&gt;" style="text;whiteSpace=wrap;html=1;" parent="1" vertex="1">
          <mxGeometry x="635" y="256" width="45" height="20" as="geometry" />
        </mxCell>
        <mxCell id="CB7PObpffi6PR3y4coE4-25" value="" style="rounded=1;whiteSpace=wrap;html=1;container=0;" parent="1" vertex="1">
          <mxGeometry x="180" y="240" width="210" height="80" as="geometry" />
        </mxCell>
        <mxCell id="CB7PObpffi6PR3y4coE4-26" value="&lt;font style=&quot;&quot;&gt;&lt;span style=&quot;font-size: 24px;&quot;&gt;Tarskian/Kripke&lt;br&gt;&amp;nbsp;int&#39;n&amp;nbsp;&lt;/span&gt;&lt;span style=&quot;font-size: 24px;&quot;&gt;formula in Σ&lt;/span&gt;&lt;sup style=&quot;border-color: var(--border-color); color: rgb(32, 33, 34); font-family: sans-serif; text-align: start; background-color: rgb(255, 255, 255);&quot;&gt;&lt;span style=&quot;font-size: 24px;&quot;&gt;+&lt;/span&gt;&lt;/sup&gt;&lt;/font&gt;" style="text;strokeColor=none;align=center;fillColor=none;html=1;verticalAlign=middle;whiteSpace=wrap;rounded=0;container=0;" parent="1" vertex="1">
          <mxGeometry x="176.25" y="265" width="217.5" height="30" as="geometry" />
        </mxCell>
        <mxCell id="AzzKZlh_LtR8jQQEeo1Z-3" value="" style="group" vertex="1" connectable="0" parent="1">
          <mxGeometry x="309" y="390" width="130" height="40" as="geometry" />
        </mxCell>
        <mxCell id="CB7PObpffi6PR3y4coE4-61" value="" style="rounded=1;whiteSpace=wrap;html=1;" parent="AzzKZlh_LtR8jQQEeo1Z-3" vertex="1">
          <mxGeometry width="130" height="40" as="geometry" />
        </mxCell>
        <mxCell id="CB7PObpffi6PR3y4coE4-21" value="&lt;font style=&quot;font-size: 24px;&quot;&gt;Tarskian&lt;/font&gt;" style="text;strokeColor=none;align=center;fillColor=none;html=1;verticalAlign=middle;whiteSpace=wrap;rounded=0;" parent="AzzKZlh_LtR8jQQEeo1Z-3" vertex="1">
          <mxGeometry x="35" y="5" width="60" height="30" as="geometry" />
        </mxCell>
        <mxCell id="AzzKZlh_LtR8jQQEeo1Z-4" value="" style="group" vertex="1" connectable="0" parent="1">
          <mxGeometry x="190" y="390" width="110" height="40" as="geometry" />
        </mxCell>
        <mxCell id="AzzKZlh_LtR8jQQEeo1Z-1" value="" style="rounded=1;whiteSpace=wrap;html=1;" vertex="1" parent="AzzKZlh_LtR8jQQEeo1Z-4">
          <mxGeometry width="110" height="40" as="geometry" />
        </mxCell>
        <mxCell id="AzzKZlh_LtR8jQQEeo1Z-2" value="&lt;font style=&quot;font-size: 24px;&quot;&gt;Kripke&lt;/font&gt;" style="text;strokeColor=none;align=center;fillColor=none;html=1;verticalAlign=middle;whiteSpace=wrap;rounded=0;" vertex="1" parent="AzzKZlh_LtR8jQQEeo1Z-4">
          <mxGeometry x="29.615384615384617" y="5" width="50.76923076923077" height="30" as="geometry" />
        </mxCell>
        <mxCell id="AzzKZlh_LtR8jQQEeo1Z-5" value="" style="endArrow=classic;html=1;rounded=0;strokeWidth=3;exitX=0.757;exitY=1.013;exitDx=0;exitDy=0;exitPerimeter=0;" edge="1" parent="1">
          <mxGeometry width="50" height="50" relative="1" as="geometry">
            <mxPoint x="220" y="320" as="sourcePoint" />
            <mxPoint x="220" y="389" as="targetPoint" />
          </mxGeometry>
        </mxCell>
      </root>
    </mxGraphModel>
  </diagram>
</mxfile>
